<svg width="590" height="835" viewBox="0 0 590 835" fill="none" xmlns="http://www.w3.org/2000/svg">
<path d="M316.574 256.187L317.797 255.139C321.394 252.056 322.556 247.416 322.604 247.219C322.701 246.822 322.457 246.422 322.06 246.325C321.663 246.226 321.261 246.472 321.165 246.868C321.155 246.906 320.317 250.229 317.948 252.912C317.697 250.575 316.863 246.158 314.102 242.062C313.874 241.722 313.413 241.633 313.073 241.862C312.734 242.09 312.645 242.55 312.873 242.89C316.532 248.319 316.575 254.515 316.575 254.577V256.187H316.574Z" fill="white"/>
<path d="M87.0933 443.844H411.089L411.65 447.452H87.6134L87.0933 443.844Z" fill="#E5D4C6"/>
<rect width="126.627" height="8.12148" transform="matrix(1 0 0 -1 187.758 493.066)" fill="#AA866D"/>
<path d="M278.223 508.842H230.565C227.831 508.842 225.613 506.625 225.613 503.89V493.065H283.174V503.89C283.174 506.625 280.957 508.842 278.223 508.842Z" fill="#C9AA91"/>
<path d="M414.733 463.528H89.9312L49.2522 181.388H360.631L414.733 463.528Z" fill="#EFE3D8"/>
<path d="M89.9312 463.528H84.6813L44.1138 182.161L49.2521 181.388L89.9312 463.528Z" fill="#C9AA91"/>
<rect width="344.807" height="16.0753" transform="matrix(1 0 0 -1 76.6372 463.528)" fill="#AA866D"/>
<path d="M67.0227 194.667H239.257L279.481 427.155H100.543L67.0227 194.667Z" fill="white"/>
<path d="M257.03 194.667H345.579L388.219 427.155H297.957L257.03 194.667Z" fill="white"/>
<path d="M128.506 244.572C128.506 244.572 94.45 245.402 93.6189 244.572C93.3972 244.361 92.7885 243.952 91.9573 242.954C91.9573 242.954 91.9573 242.943 91.9463 242.932C90.4066 241.083 88.1474 237.273 86.2428 229.066C85.2019 224.614 84.2821 218.854 83.6401 211.423H116.877C116.877 211.423 117.563 227.393 122.691 236.818C126.402 243.641 128.506 244.572 128.506 244.572Z" fill="#57CE87"/>
<path d="M91.9575 242.954H89.0999C87.25 238.978 86.2423 229.066 86.2423 229.066C88.1469 237.272 90.4068 241.082 91.9457 242.932C91.9575 242.943 91.9575 242.954 91.9575 242.954Z" fill="#EFE3D8"/>
<path d="M103.077 236.292L104.3 235.244C107.897 232.161 109.059 227.52 109.107 227.324C109.204 226.926 108.96 226.527 108.563 226.43C108.166 226.331 107.764 226.577 107.668 226.973C107.658 227.011 106.82 230.334 104.451 233.016C104.2 230.679 103.366 226.262 100.605 222.166C100.376 221.826 99.9162 221.738 99.5764 221.966C99.2373 222.194 99.1479 222.655 99.3762 222.994C103.035 228.424 103.077 234.619 103.077 234.681V236.292H103.077Z" fill="white"/>
<path d="M205.821 313.081C205.821 313.081 171.765 313.911 170.934 313.081C170.712 312.87 170.103 312.46 169.272 311.463C169.272 311.463 169.272 311.452 169.261 311.441C167.722 309.592 165.462 305.782 163.558 297.575C162.517 293.123 161.598 287.363 160.955 279.932H194.192C194.192 279.932 194.878 295.902 200.006 305.327C203.716 312.151 205.821 313.081 205.821 313.081Z" fill="#DD842A"/>
<path d="M169.272 311.463H166.415C164.565 307.487 163.557 297.575 163.557 297.575C165.462 305.781 167.722 309.591 169.261 311.441C169.272 311.452 169.272 311.463 169.272 311.463Z" fill="#EFE3D8"/>
<path d="M179.673 303.917L180.897 302.868C184.494 299.786 185.655 295.145 185.703 294.949C185.8 294.551 185.556 294.152 185.16 294.055C184.762 293.956 184.361 294.202 184.264 294.598C184.255 294.635 183.417 297.958 181.048 300.641C180.796 298.304 179.962 293.887 177.201 289.791C176.973 289.451 176.513 289.363 176.173 289.591C175.834 289.819 175.745 290.28 175.973 290.619C179.631 296.049 179.674 302.244 179.674 302.306V303.917H179.673Z" fill="white"/>
<path d="M160.266 382.552C160.266 382.552 126.21 383.382 125.379 382.552C125.157 382.341 124.548 381.931 123.717 380.935C123.717 380.935 123.717 380.924 123.706 380.912C122.166 379.063 119.907 375.253 118.003 367.046C116.962 362.594 116.043 356.835 115.4 349.403H148.636C148.636 349.403 149.323 365.374 154.451 374.798C158.162 381.621 160.266 382.552 160.266 382.552Z" fill="#57CE87"/>
<path d="M256.85 398.426C256.85 398.426 222.794 399.257 221.963 398.426C221.741 398.216 221.132 397.806 220.301 396.809C220.301 396.809 220.301 396.798 220.29 396.787C218.75 394.938 216.491 391.128 214.587 382.92C213.546 378.469 212.627 372.709 211.984 365.278H245.221C245.221 365.278 245.907 381.248 251.035 390.673C254.746 397.496 256.85 398.426 256.85 398.426Z" fill="#57CE87"/>
<path d="M220.302 396.809H217.444C215.594 392.833 214.587 382.92 214.587 382.92C216.491 391.127 218.751 394.937 220.29 396.787C220.302 396.798 220.302 396.809 220.302 396.809Z" fill="#EFE3D8"/>
<path d="M123.718 380.935H120.86C119.01 376.958 118.003 367.046 118.003 367.046C119.907 375.253 122.167 379.063 123.706 380.912C123.718 380.924 123.718 380.935 123.718 380.935Z" fill="#EFE3D8"/>
<path d="M230.881 388.161L232.104 387.112C235.702 384.029 236.863 379.389 236.911 379.193C237.008 378.795 236.764 378.395 236.367 378.299C235.97 378.2 235.569 378.446 235.472 378.842C235.462 378.879 234.624 382.202 232.255 384.885C232.004 382.548 231.171 378.131 228.409 374.035C228.181 373.695 227.72 373.607 227.381 373.835C227.041 374.063 226.952 374.523 227.18 374.863C230.839 380.293 230.882 386.488 230.882 386.55V388.161H230.881Z" fill="white"/>
<path d="M134.758 374.272L135.982 373.224C139.579 370.141 140.74 365.501 140.788 365.304C140.885 364.907 140.641 364.507 140.245 364.41C139.847 364.311 139.446 364.557 139.349 364.953C139.34 364.991 138.502 368.314 136.133 370.996C135.881 368.66 135.047 364.242 132.286 360.147C132.058 359.807 131.598 359.718 131.258 359.946C130.919 360.175 130.83 360.635 131.058 360.975C134.716 366.404 134.759 372.6 134.759 372.662V374.272H134.758Z" fill="white"/>
<path d="M225.65 244.572C225.65 244.572 191.595 245.402 190.763 244.572C190.542 244.361 189.933 243.952 189.102 242.954C189.102 242.954 189.102 242.943 189.091 242.932C187.551 241.083 185.292 237.273 183.387 229.066C182.346 224.614 181.427 218.854 180.785 211.423H214.021C214.021 211.423 214.707 227.393 219.835 236.818C223.546 243.641 225.65 244.572 225.65 244.572Z" fill="#E23758"/>
<path d="M189.104 242.954H186.246C184.396 238.978 183.388 229.066 183.388 229.066C185.293 237.272 187.553 241.082 189.092 242.932C189.104 242.943 189.104 242.954 189.104 242.954Z" fill="#EFE3D8"/>
<path d="M199.77 234.197L200.994 233.148C204.591 230.065 205.752 225.425 205.8 225.229C205.897 224.831 205.653 224.431 205.256 224.335C204.859 224.236 204.458 224.482 204.361 224.878C204.351 224.915 203.514 228.238 201.144 230.921C200.893 228.584 200.06 224.167 197.298 220.071C197.07 219.731 196.61 219.643 196.27 219.871C195.931 220.099 195.841 220.559 196.07 220.899C199.728 226.329 199.771 232.524 199.771 232.586V234.197H199.77Z" fill="white"/>
<path d="M342.231 265.351C342.231 265.351 308.176 266.182 307.344 265.351C307.123 265.141 306.514 264.732 305.683 263.734C305.683 263.734 305.683 263.723 305.672 263.712C304.132 261.863 301.873 258.053 299.968 249.846C298.927 245.394 298.008 239.634 297.366 232.203H330.602C330.602 232.203 331.289 248.173 336.416 257.598C340.127 264.421 342.231 265.351 342.231 265.351Z" fill="#57CE87"/>
<path d="M305.683 263.734H302.825C300.975 259.758 299.967 249.846 299.967 249.846C301.872 258.052 304.132 261.862 305.671 263.712C305.683 263.723 305.683 263.734 305.683 263.734Z" fill="#EFE3D8"/>
<path d="M347.66 358.019C347.66 358.019 313.604 358.849 312.773 358.019C312.551 357.808 311.942 357.399 311.111 356.402C311.111 356.402 311.111 356.391 311.1 356.38C309.56 354.53 307.301 350.72 305.397 342.513C304.356 338.061 303.437 332.302 302.794 324.87H336.03C336.03 324.87 336.717 340.841 341.845 350.265C345.556 357.089 347.66 358.019 347.66 358.019Z" fill="#E23758"/>
<path d="M311.112 356.402H308.254C306.404 352.426 305.397 342.513 305.397 342.513C307.301 350.72 309.561 354.53 311.1 356.38C311.112 356.391 311.112 356.402 311.112 356.402Z" fill="#EFE3D8"/>
<path d="M200.506 463.528L198.424 469.143L69.863 816.361H56.8722L185.433 469.143L187.515 463.528H200.506Z" fill="#C9AA91"/>
<path d="M444.337 816.361H431.346L302.785 469.143L300.703 463.528H313.694L444.337 816.361Z" fill="#C9AA91"/>
<path d="M259.378 502.664H249.41C248.238 502.664 247.288 501.714 247.288 500.541C247.288 499.369 248.238 498.419 249.41 498.419H259.378C260.55 498.419 261.5 499.369 261.5 500.541C261.5 501.714 260.55 502.664 259.378 502.664Z" fill="#AA866D"/>
<path d="M187.515 463.528H200.506L198.424 469.143H185.433L187.515 463.528Z" fill="#AA866D"/>
<path d="M315.773 469.143H302.785L300.703 463.528H313.694L315.773 469.143Z" fill="#AA866D"/>
<path d="M316.574 256.187L317.797 255.139C321.394 252.056 322.556 247.416 322.604 247.219C322.701 246.822 322.457 246.422 322.06 246.325C321.663 246.226 321.261 246.472 321.165 246.868C321.155 246.906 320.317 250.229 317.948 252.912C317.697 250.575 316.863 246.158 314.102 242.062C313.874 241.722 313.413 241.633 313.073 241.862C312.734 242.09 312.645 242.55 312.873 242.89C316.532 248.319 316.575 254.515 316.575 254.577V256.187H316.574Z" fill="white"/>
<path d="M321.513 348.856L322.736 347.807C326.333 344.724 327.495 340.084 327.543 339.888C327.64 339.49 327.396 339.09 326.999 338.994C326.602 338.895 326.2 339.141 326.104 339.537C326.094 339.574 325.256 342.897 322.887 345.58C322.636 343.243 321.802 338.826 319.041 334.73C318.813 334.39 318.352 334.302 318.012 334.53C317.673 334.758 317.584 335.219 317.812 335.558C321.471 340.988 321.514 347.183 321.514 347.245V348.856H321.513Z" fill="white"/>
<path d="M571.997 789.571C571.997 789.571 576.676 791.313 582.947 798.63C589.219 805.947 589.965 811.77 589.965 811.77C589.965 811.77 570.553 830.584 554.576 831.63C538.599 832.675 517.844 831.63 516.052 828.793C514.261 825.956 521.129 826.851 528.745 821.924C536.36 816.997 552.865 800.416 552.865 800.416L571.997 789.571Z" fill="#11223D"/>
<path d="M470.92 649.751C491.265 697.995 553.552 801.758 553.552 801.758C553.552 801.758 555.767 802.954 563.519 799.543C566.72 798.125 568.88 796.276 570.319 794.592C572.357 792.2 572.933 790.129 572.933 790.129C560.418 752.574 505.984 642.608 498.22 625.032L497.622 623.625C494.665 616.36 499.46 600.943 503.58 590.178C496.703 600.301 485.462 617.501 479.536 630.093C475.804 638.023 472.969 644.69 470.92 649.751Z" fill="#D7B8A1"/>
<path d="M508.454 578.56C508.154 578.915 507.833 579.291 507.479 579.701C507.656 579.667 507.823 579.634 507.989 579.59C508.254 578.992 508.42 578.638 508.454 578.56Z" fill="#C19B7E"/>
<path d="M467.364 640.681C468.339 643.406 469.535 646.451 470.92 649.752C472.968 644.69 475.804 638.023 479.536 630.093C485.461 617.501 496.702 600.301 503.581 590.178C504.356 588.141 505.109 586.269 505.795 584.651C504.821 584.984 503.725 585.338 502.528 585.681C492.118 598.496 475.516 620.657 467.364 640.681Z" fill="#C19B7E"/>
<path d="M464.574 628.797C464.518 631.388 465.526 635.475 467.365 640.68C477.355 616.127 500.069 588.35 508.465 578.548L503.514 572.402L496.991 564.317L491.165 557.085C491.165 557.085 489.061 560.961 486.026 567.053C486.004 567.108 485.971 567.175 485.938 567.23C478.307 582.614 464.972 611.819 464.574 628.797Z" fill="#D7B8A1"/>
<path d="M400.063 808.211C400.063 808.211 402.98 814.722 396.75 825.659C390.52 836.596 386.228 834.657 386.228 834.657C386.228 834.657 370.953 833.637 350.326 819.106C329.698 804.575 317.285 796.033 317.838 793.679C318.392 791.325 377.46 793.079 377.46 793.079L386.228 796.586L400.063 808.211Z" fill="#11223D"/>
<path d="M507.479 579.701C507.834 579.291 508.155 578.915 508.454 578.56L508.465 578.549C508.808 578.139 509.14 577.763 509.439 577.419C510.846 575.791 511.654 574.894 511.654 574.894L509.439 574.219L503.514 572.402L486.292 567.141L486.027 567.053L482.593 566.001L457.94 558.47C457.94 558.47 457.076 560.353 455.648 563.564C454.285 566.621 452.425 570.896 450.298 575.902C454.152 576.832 458.173 577.962 462.181 579.324C476.756 584.275 494.388 582.68 507.479 579.701Z" fill="#D7B8A1"/>
<path d="M377.457 793.075C377.457 793.075 377.646 797.505 383.737 804.15C389.828 810.795 400.062 808.215 400.062 808.215C400.062 808.215 422.689 758.376 439.301 719.979C453.754 686.587 454.795 676.93 462.359 654.569C463.478 651.224 464.763 647.592 466.247 643.56C466.601 642.608 466.966 641.644 467.365 640.68C475.516 620.656 492.118 598.495 502.529 585.681C496.094 587.542 486.603 589.126 476.347 586.988C465.649 584.751 455.958 582.381 448.128 581.063C442.413 594.83 435.624 612.34 431.914 626.029C424.715 652.609 377.457 793.075 377.457 793.075Z" fill="#D7B8A1"/>
<path d="M422.887 571.572C422.887 571.572 426.553 571.782 432.301 572.546C437.14 573.189 443.464 574.241 450.297 575.902C454.152 576.832 458.172 577.962 462.181 579.324C476.756 584.275 494.387 582.68 507.478 579.701C507.655 579.668 507.822 579.634 507.988 579.59C509.97 579.136 511.831 578.649 513.569 578.139C515.585 577.563 517.424 576.965 519.041 576.378C531.223 571.948 549.31 573.055 549.31 573.055C544.137 528.755 532.165 513.271 532.165 513.271L528.632 513.36L442.744 515.553L431.913 515.83C432.046 516.926 432.079 518.255 432.046 519.784C434.715 521.545 438.558 522.719 444.217 523.782C449.123 524.701 455.392 525.554 463.477 526.629C472.015 527.769 479.325 527.57 485.749 526.684C498.075 525 507.157 520.781 515.53 518.599C519.539 517.558 522.884 517.381 525.62 516.938C526.03 516.871 526.439 516.794 526.816 516.705C527.757 516.495 528.621 516.229 529.396 515.83C529.396 515.83 528.544 520.537 523.006 520.814C517.468 521.091 494.454 532.864 480.975 532.864C469.092 532.864 442.201 533.827 431.436 527.381C429.377 544.891 422.887 571.572 422.887 571.572Z" fill="#11223D"/>
<path d="M396.383 413.352L403.903 406.341C404.092 406.84 404.325 407.338 404.59 407.848C410.315 418.923 421.026 434.794 443.729 425.203C459.135 418.69 467.741 406.231 467.242 393.993L467.264 394.004C467.264 394.004 473.998 418.568 456 428.159C438.004 437.75 425.544 429.4 428.589 437.595C431.635 445.779 436.342 458.239 444.925 456.855C453.509 455.47 463.288 442.733 467.264 447.441C471.229 452.148 448.802 467.376 441.326 470.422C437.062 472.161 438.934 490.988 441.326 506.793C441.78 509.883 442.267 512.851 442.744 515.553C443.287 518.743 443.796 521.567 444.217 523.782C449.123 524.701 455.392 525.554 463.476 526.628C472.015 527.769 479.325 527.57 485.748 526.684C498.075 525 507.157 520.781 515.53 518.599C519.539 517.558 522.884 517.381 525.619 516.938C526.029 516.871 526.439 516.794 526.815 516.705C527.757 516.495 528.621 516.229 529.396 515.83C530.492 515.276 531.411 514.479 532.165 513.272C533.815 510.68 534.712 506.173 534.912 498.11C534.923 497.8 534.923 497.501 534.923 497.191C534.89 474.453 513.869 439.854 513.869 439.854C507.014 425.235 492.206 403.483 479.47 385.852C479.458 385.841 479.458 385.841 479.458 385.841C479.015 385.22 478.573 384.612 478.129 384.002C478.107 383.969 478.085 383.936 478.074 383.924C471.174 374.422 465.017 366.27 461.251 361.353C458.826 358.175 457.386 356.347 457.386 356.347L446.732 347.764L406.086 351.086L403.793 351.275L399.983 351.585L399.972 351.596L398.499 352.471C398.499 352.471 398.577 354.375 398.643 357.466C398.832 364.963 399.009 379.416 398.012 390.214C397.569 394.988 396.905 399.041 395.919 401.478C393.405 407.681 393.814 411.004 396.383 413.352Z" fill="#EFE3D8"/>
<path d="M355.893 229.448C357.532 231.674 362.195 232.006 370.944 228.706C373.037 227.92 374.488 226.889 375.485 225.749C375.374 225.981 373.436 229.758 368.873 231.154C364.166 232.582 359.924 232.028 361.031 232.859C362.139 233.69 365.993 233.601 368.175 237.655C370.356 241.72 382.816 271.711 384.477 270.98C386.139 270.238 387.977 269.596 388.907 267.104C389.826 264.612 391.255 274.58 391.255 274.58C391.255 274.58 387.334 278.522 385.739 279.851C385.872 280.14 385.95 280.295 385.95 280.295L402.197 271.989L398.221 257.779C398.221 257.779 377.001 233.968 378.518 231.199C380.003 228.507 382.495 227.732 380.567 222.061V222.05C380.456 221.563 378.496 213.744 376.447 213.39C374.321 213.013 369.702 213.39 369.702 213.39C369.702 213.39 370.09 214.486 371.097 215.162C371.164 215.217 371.23 215.262 371.308 215.306C369.824 215.45 368.152 215.882 366.302 216.613C365.549 216.912 364.818 217.222 364.098 217.543C358.152 220.234 353.878 223.855 355.893 229.448Z" fill="#D7B8A1"/>
<path d="M295.135 358.928C299.2 364.654 302.334 364.654 305.103 365.396C305.125 365.408 305.147 365.419 305.169 365.43C311.759 368.376 350.899 432.413 356.237 435.347C361.587 438.304 369.893 427.417 374.135 423.906C378 420.728 372.883 411.635 371.92 409.984C372.397 410.726 372.917 411.491 373.493 412.277C376.993 417.061 379.706 419.742 381.71 421.248L375.553 407.936L370.635 397.326C370.635 397.326 369.284 398.411 367.413 399.884C365.142 401.657 362.107 404.005 359.782 405.632C358.907 406.241 358.12 406.762 357.523 407.105C357.113 407.349 356.26 406.884 355.086 405.876C346.248 398.301 318.87 359.859 319.69 357.09C320.609 353.944 319.69 348.783 318.029 349.337C316.367 349.891 316.544 351.552 315.26 349.514C313.964 347.488 316.921 341.95 311.383 339.181C305.846 336.412 295.877 345.46 293.287 347.852C290.705 350.257 291.071 353.213 295.135 358.928Z" fill="#D7B8A1"/>
<path d="M367.412 399.884C367.966 402.31 369.173 405.665 371.753 409.73C371.753 409.73 371.786 409.786 371.852 409.885C372.35 410.66 372.893 411.458 373.492 412.278C376.991 417.062 379.705 419.742 381.709 421.249C384.611 423.419 385.985 423.076 385.985 423.076L387.114 422.013L390.714 418.658L396.384 413.353L403.904 406.342L416.219 394.835L427.771 379.518L435.236 369.639L422.887 351.088H403.948L403.793 351.276L401.855 353.613L398.644 357.467L367.002 395.543C367.002 395.543 366.769 397.104 367.412 399.884Z" fill="#EFE3D8"/>
<path d="M387.247 325.337V332.902C387.247 332.902 387.879 333.732 388.853 335.094L388.864 335.105C390.293 334.607 391.6 334.064 392.707 333.499C392.707 333.499 392.874 338.018 392.885 341.075C395.255 344.84 397.658 349.193 398.5 352.471L407.182 347.299L409.209 335.67L402.564 325.525L391.256 323.122L387.247 325.337Z" fill="#D7B8A1"/>
<path d="M367.179 333.278C369.571 338.959 381.023 337.796 388.852 335.105C388.852 335.105 388.852 335.105 388.863 335.105C390.292 334.607 391.599 334.064 392.707 333.499C393.814 332.945 394.722 332.359 395.365 331.793C397.237 330.143 399.95 327.784 402.564 325.525C406.662 321.992 410.505 318.692 410.505 318.692L416.219 300.229L408.655 288.235L398.134 285.466L383.924 288.235C383.924 288.235 378.11 294.515 375.064 300.507C375.064 300.507 367.677 301.991 367.211 303.652C366.757 305.313 371.276 308.447 370.999 309.366C370.723 310.297 363.923 325.526 367.179 333.278Z" fill="#D7B8A1"/>
<path d="M355.251 227.876C355.339 228.462 355.55 228.994 355.893 229.449C357.532 231.675 362.195 232.007 370.944 228.707C373.037 227.921 374.488 226.89 375.485 225.749C375.496 225.738 375.496 225.738 375.496 225.738C378.076 222.792 377.555 219.071 376.858 216.789C376.47 215.516 375.219 214.719 373.89 214.829C372.915 214.918 371.985 215.029 371.098 215.162C367.643 215.649 364.919 216.424 362.77 217.377C355.605 220.489 354.863 225.417 355.251 227.876Z" fill="#D7B8A1"/>
<path d="M448.127 581.063C455.958 582.381 465.648 584.751 476.347 586.988C486.603 589.125 496.094 587.542 502.529 585.681C503.725 585.338 504.821 584.984 505.796 584.651C506.737 582.392 507.513 580.62 507.988 579.59C507.822 579.634 507.656 579.668 507.479 579.701C494.388 582.68 476.756 584.275 462.181 579.324C458.172 577.962 454.152 576.832 450.298 575.902C449.6 577.541 448.88 579.269 448.127 581.063Z" fill="#C19B7E"/>
<path d="M388.864 335.105C389.927 336.601 391.401 338.727 392.885 341.075C392.874 338.019 392.707 333.499 392.707 333.499C391.599 334.065 390.292 334.607 388.864 335.105Z" fill="#C19B7E"/>
<path d="M305.168 365.429C308.479 367.168 347.054 432.81 353.644 438.858C360.29 444.949 381.72 421.259 381.72 421.259L381.709 421.248C379.704 419.742 376.991 417.061 373.491 412.277C372.893 411.458 372.35 410.66 371.852 409.885C372.638 411.203 378.087 420.65 374.133 423.906C369.891 427.417 361.585 438.304 356.235 435.347C350.898 432.412 311.758 368.375 305.168 365.429Z" fill="#C19B7E"/>
<path d="M355.085 405.876C355.373 408.678 355.838 412.045 356.414 412.366C357.034 412.71 358.629 408.745 359.781 405.632C358.906 406.241 358.119 406.762 357.522 407.105C357.112 407.349 356.259 406.884 355.085 405.876Z" fill="#C19B7E"/>
<path d="M355.893 229.448C356.026 229.858 356.214 230.267 356.425 230.699C359.925 237.71 363.435 234.243 364.908 236.503C366.016 238.208 377.423 262.241 382.961 273.959C384.556 272.863 386.216 271.944 387.247 271.068C388.687 269.839 388.831 268.986 388.465 268.044C387.469 269.772 385.907 270.337 384.478 270.979C382.817 271.71 370.357 241.719 368.175 237.654C365.994 233.601 362.139 233.689 361.032 232.859C359.925 232.028 364.166 232.582 368.873 231.153C373.436 229.757 375.375 225.981 375.486 225.748C374.489 226.889 373.038 227.919 370.945 228.705C362.195 232.006 357.532 231.675 355.893 229.448Z" fill="#C19B7E"/>
<path d="M498.22 625.031L570.298 794.604C570.298 794.604 570.309 794.604 570.32 794.592C572.357 792.2 572.934 790.129 572.934 790.129C560.419 752.573 505.984 642.608 498.22 625.031Z" fill="#C19B7E"/>
<path d="M396.384 413.352C398.057 414.892 400.648 416.021 403.948 417.262C412.31 420.407 422.222 441.904 427.483 455.471C432.412 468.196 425.18 501.61 426.996 512.342C427.117 513.062 427.273 513.671 427.483 514.17C428.491 516.584 429.886 518.379 432.046 519.784C434.715 521.546 438.558 522.72 444.217 523.783C443.796 521.568 443.287 518.744 442.744 515.554C442.268 512.852 441.781 509.884 441.327 506.794C438.934 490.99 437.062 472.162 441.327 470.422C448.802 467.376 471.23 452.149 467.265 447.442C463.288 442.735 453.509 455.471 444.926 456.855C436.343 458.24 431.636 445.78 428.59 437.596C425.544 429.401 438.003 437.751 456.001 428.16C473.998 418.569 467.265 394.005 467.265 394.005L467.242 393.993C467.741 406.232 459.136 418.691 443.73 425.204C421.025 434.794 410.316 418.924 404.59 407.849C404.324 407.339 404.092 406.841 403.904 406.342L396.384 413.352Z" fill="#C9AA91"/>
<path d="M485.749 526.684C498.076 525 507.158 520.781 515.53 518.599C519.54 517.558 522.884 517.381 525.62 516.938C526.03 516.871 526.439 516.794 526.816 516.705C531.955 515.576 534.558 512.585 534.912 498.11C534.923 497.8 534.923 497.501 534.923 497.191C534.923 497.191 529.009 507.889 518.487 508.997C507.966 510.104 488.396 509.373 491.165 511.588C493.933 513.803 507.589 513.426 499.659 518.787C493.923 522.652 488.374 525.444 485.749 526.684Z" fill="#C9AA91"/>
<path d="M379.17 305.493C378.652 305.246 379.246 302.922 380.497 300.303C381.747 297.683 383.18 295.759 383.697 296.006C384.214 296.253 383.62 298.577 382.37 301.197C381.12 303.816 379.687 305.74 379.17 305.493Z" fill="#281C1A"/>
<path d="M382.376 292.942C382.376 292.942 385.408 289.62 388.864 291.835C392.319 294.049 390.012 299.772 390.012 299.495C390.012 299.218 390.019 295.065 387.246 293.681C384.474 292.296 382.376 292.942 382.376 292.942Z" fill="#C19B7E"/>
<path d="M370.354 317.584C370.354 317.584 371.461 319.799 375.153 319.061C378.845 318.323 381.152 319.707 380.875 324.875C380.598 330.044 371.569 329.955 369.338 325.706C369.339 325.707 371.923 324.691 370.354 317.584Z" fill="white"/>
<path d="M431.437 527.381C442.202 533.827 469.093 532.864 480.977 532.864C494.455 532.864 517.47 521.091 523.007 520.814C528.544 520.537 529.397 515.83 529.397 515.83C528.622 516.229 527.758 516.495 526.817 516.705C526.44 516.794 526.031 516.871 525.621 516.938C522.885 517.381 519.541 517.558 515.531 518.599C507.159 520.781 498.077 525.001 485.75 526.684C479.326 527.57 472.017 527.769 463.478 526.629C455.393 525.554 449.125 524.702 444.218 523.782C438.559 522.719 434.716 521.545 432.047 519.784C431.991 521.977 431.77 524.558 431.437 527.381Z" fill="#09121E"/>
<path d="M383.925 288.235C383.925 288.235 383.371 291.746 392.409 296.541C401.457 301.337 393.893 315.923 393.339 335.493C393.15 342.149 396.174 347.255 399.973 351.596C400.594 352.282 401.213 352.958 401.855 353.611C408.966 360.921 417.36 366.248 413.451 374.068C411.712 377.545 409.863 380.79 408.179 383.891C403.915 391.81 400.814 398.821 403.904 406.341C404.092 406.839 404.325 407.337 404.59 407.847C410.316 418.922 421.026 434.793 443.73 425.202C452.136 421.647 458.515 416.331 462.491 410.239C465.814 405.167 467.464 399.552 467.242 393.992C467.01 388.189 464.717 382.44 460.155 377.39C452.247 368.651 456.688 365.805 461.251 361.353C464.895 357.787 468.616 353.202 466.246 343.799C463.2 331.705 444.738 337.43 447.141 321.183C449.544 304.936 456.278 301.336 451.106 290.638C445.945 279.928 433.829 283.616 425.854 277.525C417.88 271.434 421.579 258.52 412.719 255.375C407.127 253.393 398 253.913 392.031 256.062C388.554 257.302 386.139 259.108 386.139 261.29C386.139 264.889 387.923 266.573 388.465 268.046C388.831 268.987 388.687 269.84 387.247 271.07C386.217 271.944 384.555 272.864 382.96 273.96C378.819 276.806 375.087 280.837 383.925 288.235Z" fill="#230E0D"/>
<path d="M392.032 256.062C392.032 256.062 410.106 254.456 412.809 259.65C415.511 264.845 415.788 275.465 420.706 280.294C425.612 285.123 444.86 285.887 446.444 293.009C448.039 300.141 437.584 322.291 442.856 331.151C448.106 340.012 460.022 341.263 461.263 348.462C462.503 355.661 449.501 359.249 450.741 368.109C451.981 376.969 466.589 393.781 462.48 410.25L462.491 410.239C465.814 405.167 467.464 399.552 467.242 393.992C467.01 388.189 464.717 382.44 460.155 377.39C452.247 368.651 456.688 365.805 461.251 361.353C464.895 357.787 468.616 353.202 466.246 343.799C463.2 331.705 444.738 337.43 447.141 321.183C449.544 304.936 456.278 301.336 451.106 290.638C445.945 279.928 433.829 283.616 425.854 277.525C417.88 271.434 421.579 258.52 412.719 255.375C407.127 253.393 398.001 253.913 392.032 256.062Z" fill="#482726"/>
<path d="M136.102 771.306C140.294 744.486 114.727 728.872 122.547 716.777C130.367 704.681 121.287 700.698 112.316 683.228C103.44 665.947 115.676 655.072 115.94 654.84C115.942 654.837 115.945 654.836 115.945 654.836C115.945 654.838 115.943 654.838 115.942 654.84C115.939 654.845 115.935 654.849 115.932 654.855C115.675 655.216 112.039 660.592 116.98 668.41C122.099 676.506 141.419 671.49 148.62 686.471C155.82 701.45 147.191 707.506 146.174 718.887C145.158 730.268 163.399 732.32 161.916 748.935C160.432 765.553 136.102 771.306 136.102 771.306Z" fill="#57CE87"/>
<path d="M115.943 654.84L115.941 654.84L115.946 654.836L115.943 654.84Z" fill="#57CE87"/>
<path d="M136.103 771.306C140.294 744.486 114.727 728.872 122.547 716.777C130.367 704.681 121.287 700.698 112.316 683.228C103.44 665.947 115.677 655.072 115.94 654.84C115.937 654.844 115.935 654.851 115.932 654.854C113.894 657.53 110.202 664.045 113.445 671.088C116.697 678.15 132.41 680.122 135.683 690.45C138.956 700.777 134.32 710.453 134.613 719.413C135.09 733.984 147.028 732.805 148.226 746.242C149.424 759.68 136.103 771.306 136.103 771.306Z" fill="#299655"/>
<path d="M136.051 771.248C136.923 770.424 137.747 769.541 138.541 768.64C139.338 767.74 140.102 766.811 140.829 765.856C142.286 763.95 143.594 761.931 144.698 759.816C145.802 757.703 146.706 755.485 147.246 753.185L147.351 752.755L147.433 752.32C147.486 752.031 147.544 751.742 147.592 751.452C147.66 750.869 147.756 750.288 147.775 749.702L147.802 749.264C147.814 749.118 147.819 748.972 147.815 748.826L147.809 747.95C147.81 747.658 147.771 747.368 147.754 747.077C147.732 746.787 147.716 746.496 147.663 746.209C147.331 743.922 146.579 741.638 145.45 739.635C144.887 738.629 144.232 737.684 143.484 736.802C142.741 735.918 141.919 735.085 141.058 734.259C140.205 733.421 139.307 732.592 138.473 731.667C137.652 730.734 136.869 729.73 136.296 728.607C135.707 727.493 135.299 726.3 135.043 725.093C134.794 723.883 134.682 722.661 134.686 721.446L134.842 721.432C135.073 722.617 135.34 723.786 135.733 724.902C136.116 726.02 136.623 727.079 137.248 728.05C138.503 730.005 140.301 731.504 142.126 733.112C143.03 733.928 143.93 734.792 144.736 735.757C145.546 736.717 146.245 737.784 146.819 738.905C147.385 740.031 147.842 741.204 148.181 742.4C148.275 742.697 148.342 743 148.423 743.299C148.461 743.45 148.505 743.598 148.536 743.75L148.626 744.211C148.684 744.52 148.751 744.825 148.8 745.133L148.909 746.065C148.954 746.375 148.963 746.686 148.976 746.998C148.985 747.31 149.015 747.621 149.005 747.932L148.98 748.865C148.979 749.021 148.969 749.175 148.951 749.33L148.907 749.793C148.866 750.413 148.747 751.022 148.654 751.633C148.594 751.936 148.523 752.237 148.458 752.539L148.357 752.99L148.233 753.436C147.591 755.818 146.584 758.07 145.386 760.192C144.169 762.306 142.758 764.295 141.207 766.158C139.655 768.021 137.986 769.781 136.154 771.367L136.051 771.248Z" fill="#196D3B"/>
<path d="M136.885 743.049C135.608 743.049 134.572 742.014 134.572 740.737C134.572 739.46 135.608 738.425 136.885 738.425C138.162 738.425 139.197 739.46 139.197 740.737C139.197 742.014 138.162 743.049 136.885 743.049Z" fill="#196D3B"/>
<path d="M126.593 693.075C125.316 693.075 124.28 692.04 124.28 690.762C124.28 689.485 125.316 688.45 126.593 688.45C127.87 688.45 128.905 689.485 128.905 690.762C128.905 692.04 127.87 693.075 126.593 693.075Z" fill="#196D3B"/>
<path d="M127.823 721.494C126.546 721.494 125.51 720.459 125.51 719.182C125.51 717.905 126.546 716.87 127.823 716.87C129.1 716.87 130.135 717.905 130.135 719.182C130.135 720.459 129.1 721.494 127.823 721.494Z" fill="#196D3B"/>
<path d="M154.395 748.255C153.118 748.255 152.082 747.22 152.082 745.942C152.082 744.665 153.118 743.63 154.395 743.63C155.672 743.63 156.707 744.665 156.707 745.942C156.707 747.22 155.672 748.255 154.395 748.255Z" fill="#299655"/>
<path d="M141.663 715.541C140.386 715.541 139.35 714.505 139.35 713.228C139.35 711.951 140.386 710.916 141.663 710.916C142.94 710.916 143.975 711.951 143.975 713.228C143.975 714.505 142.94 715.541 141.663 715.541Z" fill="#299655"/>
<path d="M143.474 695.256C142.197 695.256 141.162 694.22 141.162 692.943C141.162 691.666 142.197 690.631 143.474 690.631C144.751 690.631 145.787 691.666 145.787 692.943C145.787 694.22 144.751 695.256 143.474 695.256Z" fill="#299655"/>
<path d="M135.404 757.272C153.688 737.206 181.873 747.361 186.405 733.689C190.936 720.017 199.729 724.602 218.967 720.654C237.998 716.751 238.812 700.401 238.828 700.05C238.828 700.047 238.828 700.043 238.828 700.043C238.827 700.045 238.828 700.046 238.827 700.047C238.825 700.052 238.825 700.059 238.821 700.064C238.701 700.491 236.788 706.693 227.599 707.737C218.081 708.817 209.891 690.613 193.702 694.381C177.515 698.15 178.198 708.669 169.961 716.589C161.725 724.509 148.702 711.573 136.678 723.136C124.652 734.701 135.404 757.272 135.404 757.272Z" fill="#57CE87"/>
<path d="M238.827 700.048L238.828 700.05C238.828 700.047 238.828 700.043 238.828 700.043C238.827 700.045 238.828 700.047 238.827 700.048Z" fill="#57CE87"/>
<path d="M135.404 757.272C153.688 737.206 181.873 747.361 186.405 733.689C190.936 720.017 199.729 724.602 218.967 720.654C237.998 716.751 238.812 700.401 238.828 700.05C238.827 700.054 238.823 700.061 238.821 700.065C238.012 703.331 235.246 710.288 227.723 712.171C220.181 714.059 208.803 703.043 198.701 706.961C188.601 710.877 183.96 720.552 176.791 725.934C165.132 734.688 158.576 724.642 147.35 732.124C136.124 739.607 135.404 757.272 135.404 757.272Z" fill="#299655"/>
<path d="M135.483 757.276C135.579 756.079 135.751 754.885 135.956 753.701C136.16 752.516 136.406 751.339 136.694 750.174C137.268 747.844 138.021 745.56 138.98 743.374C139.936 741.191 141.099 739.096 142.555 737.235L142.824 736.884L143.111 736.548C143.304 736.326 143.492 736.1 143.689 735.881C144.101 735.463 144.494 735.024 144.939 734.643L145.263 734.347C145.369 734.247 145.48 734.151 145.597 734.063L146.283 733.518C146.51 733.335 146.761 733.184 146.998 733.015C147.238 732.85 147.475 732.68 147.732 732.542C149.723 731.368 151.975 730.525 154.243 730.151C155.38 729.959 156.527 729.877 157.682 729.909C158.837 729.934 160.001 730.053 161.185 730.207C162.372 730.347 163.581 730.528 164.824 730.599C166.066 730.655 167.339 730.636 168.574 730.38C169.811 730.141 170.996 729.712 172.098 729.156C173.197 728.593 174.22 727.915 175.165 727.151L175.077 727.021C174.008 727.584 172.93 728.107 171.814 728.5C170.703 728.902 169.56 729.17 168.411 729.291C166.102 729.536 163.807 729.073 161.411 728.658C160.209 728.464 158.971 728.303 157.714 728.279C156.458 728.248 155.188 728.372 153.955 728.627C152.723 728.89 151.523 729.269 150.378 729.753C150.087 729.866 149.809 730.004 149.525 730.127C149.384 730.192 149.241 730.251 149.102 730.321L148.686 730.54C148.409 730.688 148.129 730.827 147.858 730.983L147.064 731.481C146.794 731.639 146.545 731.829 146.294 732.013C146.046 732.202 145.784 732.373 145.548 732.576L144.837 733.179C144.715 733.277 144.602 733.382 144.492 733.492L144.158 733.817C143.701 734.237 143.301 734.711 142.883 735.166C142.684 735.403 142.494 735.647 142.299 735.886L142.011 736.248L141.741 736.623C140.286 738.615 139.161 740.811 138.257 743.074C137.371 745.347 136.706 747.692 136.224 750.068C135.743 752.444 135.416 754.848 135.328 757.269L135.483 757.276Z" fill="#196D3B"/>
<path d="M158.746 739.83C157.469 739.83 156.434 738.794 156.434 737.517C156.434 736.24 157.469 735.205 158.746 735.205C160.023 735.205 161.059 736.24 161.059 737.517C161.059 738.794 160.023 739.83 158.746 739.83Z" fill="#196D3B"/>
<path d="M204.151 716.555C202.874 716.555 201.839 715.52 201.839 714.243C201.839 712.965 202.874 711.93 204.151 711.93C205.429 711.93 206.464 712.965 206.464 714.243C206.464 715.52 205.429 716.555 204.151 716.555Z" fill="#196D3B"/>
<path d="M181.226 733.395C179.949 733.395 178.913 732.36 178.913 731.082C178.913 729.805 179.949 728.77 181.226 728.77C182.503 728.77 183.538 729.805 183.538 731.082C183.538 732.36 182.503 733.395 181.226 733.395Z" fill="#196D3B"/>
<path d="M143.722 729.439C142.445 729.439 141.41 728.404 141.41 727.127C141.41 725.85 142.445 724.815 143.722 724.815C144.999 724.815 146.035 725.85 146.035 727.127C146.035 728.404 144.999 729.439 143.722 729.439Z" fill="#299655"/>
<path d="M177.2 718.876C175.923 718.876 174.887 717.841 174.887 716.564C174.887 715.287 175.923 714.251 177.2 714.251C178.477 714.251 179.512 715.287 179.512 716.564C179.512 717.841 178.477 718.876 177.2 718.876Z" fill="#299655"/>
<path d="M191.879 704.761C190.602 704.761 189.567 703.726 189.567 702.449C189.567 701.171 190.602 700.136 191.879 700.136C193.156 700.136 194.191 701.171 194.191 702.449C194.191 703.726 193.156 704.761 191.879 704.761Z" fill="#299655"/>
<path d="M142.163 771.49C130.295 747.076 100.389 748.852 99.9056 734.456C99.4217 720.061 89.6918 721.975 72.3533 712.752C55.2008 703.629 59.0403 687.716 59.1238 687.374C59.1245 687.371 59.1253 687.368 59.1253 687.368C59.126 687.371 59.1245 687.371 59.1253 687.374C59.1253 687.379 59.1238 687.385 59.1253 687.391C59.1208 687.835 59.2029 694.324 67.7233 697.922C76.5481 701.647 89.5485 686.5 104.012 694.689C118.475 702.878 114.847 712.776 120.51 722.701C126.172 732.626 142.32 723.897 150.587 738.386C158.856 752.877 142.163 771.49 142.163 771.49Z" fill="#57CE87"/>
<path d="M59.1263 687.374L59.1241 687.374C59.1249 687.371 59.1256 687.368 59.1256 687.368C59.1271 687.371 59.1256 687.372 59.1263 687.374Z" fill="#57CE87"/>
<path d="M142.164 771.49C130.295 747.076 100.39 748.852 99.9057 734.456C99.4218 720.061 89.692 721.975 72.3534 712.752C55.201 703.629 59.0405 687.716 59.1239 687.374C59.1239 687.38 59.1254 687.386 59.1261 687.391C58.9799 690.752 59.6677 698.208 66.3507 702.14C73.0523 706.082 87.0789 698.73 95.6621 705.343C104.244 711.954 105.962 722.545 111.318 729.733C120.029 741.425 129.156 733.642 137.811 743.991C146.465 754.34 142.164 771.49 142.164 771.49Z" fill="#299655"/>
<path d="M142.088 771.472C142.334 770.296 142.506 769.103 142.644 767.909C142.784 766.715 142.881 765.517 142.933 764.317C143.041 761.92 142.963 759.516 142.662 757.149C142.362 754.784 141.838 752.446 140.968 750.25L140.808 749.837L140.628 749.434C140.505 749.166 140.389 748.895 140.262 748.63C139.985 748.112 139.732 747.581 139.414 747.089L139.186 746.714C139.113 746.587 139.034 746.464 138.947 746.347L138.443 745.63C138.277 745.39 138.079 745.174 137.899 744.945C137.715 744.719 137.536 744.489 137.329 744.285C135.751 742.596 133.829 741.15 131.758 740.151C130.722 739.646 129.645 739.243 128.527 738.947C127.412 738.645 126.262 738.43 125.083 738.243C123.904 738.043 122.693 737.875 121.481 737.591C120.275 737.295 119.058 736.917 117.947 736.322C116.827 735.744 115.811 734.997 114.912 734.152C114.016 733.301 113.226 732.361 112.536 731.361L112.657 731.26C113.523 732.103 114.409 732.909 115.369 733.601C116.321 734.301 117.342 734.881 118.41 735.322C120.555 736.21 122.888 736.414 125.304 736.693C126.512 736.846 127.744 737.042 128.957 737.374C130.171 737.7 131.353 738.177 132.464 738.771C133.571 739.372 134.616 740.074 135.577 740.862C135.823 741.052 136.051 741.263 136.289 741.462C136.406 741.565 136.526 741.661 136.64 741.768L136.978 742.096C137.201 742.316 137.431 742.528 137.646 742.754L138.267 743.456C138.481 743.684 138.666 743.936 138.855 744.184C139.04 744.435 139.243 744.673 139.412 744.935L139.924 745.715C140.012 745.843 140.092 745.976 140.166 746.113L140.395 746.519C140.715 747.051 140.964 747.619 141.238 748.174C141.362 748.457 141.475 748.745 141.594 749.029L141.768 749.458L141.92 749.894C142.754 752.215 143.212 754.64 143.44 757.066C143.647 759.497 143.623 761.935 143.414 764.35C143.203 766.765 142.838 769.164 142.239 771.511L142.088 771.472Z" fill="#196D3B"/>
<path d="M125.355 748.257C124.078 748.257 123.043 747.222 123.043 745.945C123.043 744.668 124.078 743.632 125.355 743.632C126.632 743.632 127.667 744.668 127.667 745.945C127.667 747.222 126.632 748.257 125.355 748.257Z" fill="#196D3B"/>
<path d="M88.3771 713.1C87.0999 713.1 86.0646 712.065 86.0646 710.788C86.0646 709.511 87.0999 708.476 88.3771 708.476C89.6542 708.476 90.6895 709.511 90.6895 710.788C90.6895 712.065 89.6542 713.1 88.3771 713.1Z" fill="#196D3B"/>
<path d="M105.611 735.732C104.334 735.732 103.299 734.697 103.299 733.42C103.299 732.143 104.334 731.108 105.611 731.108C106.888 731.108 107.923 732.143 107.923 733.42C107.923 734.697 106.888 735.732 105.611 735.732Z" fill="#196D3B"/>
<path d="M142.703 742.535C141.426 742.535 140.391 741.5 140.391 740.223C140.391 738.946 141.426 737.91 142.703 737.91C143.98 737.91 145.016 738.946 145.016 740.223C145.016 741.5 143.98 742.535 142.703 742.535Z" fill="#299655"/>
<path d="M113.575 722.943C112.298 722.943 111.262 721.908 111.262 720.631C111.262 719.354 112.298 718.318 113.575 718.318C114.852 718.318 115.887 719.354 115.887 720.631C115.887 721.908 114.852 722.943 113.575 722.943Z" fill="#299655"/>
<path d="M103.482 705.254C102.205 705.254 101.17 704.219 101.17 702.942C101.17 701.665 102.205 700.63 103.482 700.63C104.759 700.63 105.794 701.665 105.794 702.942C105.794 704.219 104.759 705.254 103.482 705.254Z" fill="#299655"/>
<path d="M168.163 763.678H102.931L114.168 825.358H156.34L168.163 763.678Z" fill="#ED8A74"/>
<path d="M101.475 760.659L152.082 776.446L156.34 825.358L168.163 763.678L101.475 760.659Z" fill="#CE5B49"/>
<path d="M138.471 763.678C171.194 761.515 187.234 793.956 202.626 785.846C218.019 777.735 221.837 789.09 241.893 801.761C261.734 814.296 276.133 800.741 276.441 800.449C276.444 800.446 276.446 800.444 276.446 800.444C276.443 800.444 276.443 800.447 276.441 800.447C276.435 800.45 276.43 800.455 276.421 800.458C275.959 800.729 269.101 804.527 260.225 797.741C251.033 790.712 259.143 768.003 241.893 757.73C224.642 747.458 216.429 757.19 202.625 757.19C188.822 757.19 188.314 735.022 168.163 735.022C148.009 735.022 138.471 763.678 138.471 763.678Z" fill="#57CE87"/>
<path d="M276.441 800.447V800.45L276.447 800.444L276.441 800.447Z" fill="#57CE87"/>
<path d="M138.472 763.678C171.194 761.515 187.234 793.956 202.627 785.846C218.019 777.735 221.837 789.09 241.894 801.761C261.734 814.296 276.133 800.741 276.441 800.449C276.436 800.452 276.428 800.455 276.422 800.457C272.983 802.623 264.748 806.365 256.621 801.707C248.473 797.035 247.789 777.916 235.713 772.869C223.64 767.822 211.498 772.36 200.749 771.044C183.267 768.904 185.97 754.667 169.93 751.783C153.892 748.898 138.472 763.678 138.472 763.678Z" fill="#299655"/>
<path d="M138.537 763.746C139.623 762.785 140.773 761.889 141.942 761.03C143.112 760.168 144.311 759.349 145.537 758.576C147.989 757.028 150.557 755.671 153.221 754.569C155.882 753.468 158.649 752.618 161.474 752.217L162.003 752.137L162.534 752.085C162.888 752.053 163.242 752.013 163.595 751.987C164.305 751.968 165.014 751.915 165.721 751.955L166.251 751.97C166.428 751.972 166.604 751.98 166.78 752.002L167.834 752.102C168.185 752.132 168.53 752.211 168.878 752.263C169.225 752.32 169.573 752.371 169.912 752.465C172.629 753.109 175.296 754.261 177.584 755.835C178.735 756.62 179.802 757.51 180.782 758.503C181.766 759.493 182.68 760.571 183.582 761.696C184.499 762.813 185.399 763.982 186.422 765.084C187.456 766.173 188.58 767.222 189.87 768.033C191.147 768.861 192.539 769.48 193.964 769.918C195.393 770.348 196.852 770.614 198.314 770.74L198.347 770.554C196.945 770.149 195.568 769.702 194.268 769.109C192.964 768.529 191.744 767.805 190.642 766.948C188.425 765.228 186.815 762.903 185.076 760.536C184.192 759.36 183.249 758.185 182.175 757.111C181.106 756.032 179.897 755.077 178.61 754.267C177.317 753.465 175.954 752.789 174.552 752.252C174.204 752.108 173.848 751.995 173.496 751.865C173.319 751.803 173.146 751.734 172.965 751.68L172.419 751.522C172.055 751.42 171.695 751.305 171.328 751.214L170.219 750.983C169.852 750.894 169.477 750.852 169.104 750.802C168.73 750.759 168.358 750.688 167.983 750.667L166.858 750.597C166.67 750.581 166.483 750.577 166.296 750.581L165.733 750.584C164.983 750.567 164.238 750.646 163.492 750.691C163.121 750.73 162.752 750.784 162.382 750.829L161.827 750.903L161.279 751.004C158.344 751.519 155.526 752.49 152.844 753.703C150.169 754.941 147.626 756.425 145.217 758.091C142.808 759.758 140.511 761.577 138.406 763.611L138.537 763.746Z" fill="#196D3B"/>
<path d="M175.338 768.814C173.796 768.814 172.545 767.563 172.545 766.02C172.545 764.478 173.796 763.227 175.338 763.227C176.881 763.227 178.132 764.478 178.132 766.02C178.132 767.563 176.881 768.814 175.338 768.814Z" fill="#196D3B"/>
<path d="M234.363 786.567C232.82 786.567 231.57 785.316 231.57 783.773C231.57 782.231 232.82 780.98 234.363 780.98C235.906 780.98 237.156 782.231 237.156 783.773C237.156 785.316 235.906 786.567 234.363 786.567Z" fill="#196D3B"/>
<path d="M200.299 782.034C198.757 782.034 197.506 780.783 197.506 779.24C197.506 777.698 198.757 776.447 200.299 776.447C201.842 776.447 203.093 777.698 203.093 779.24C203.093 780.783 201.842 782.034 200.299 782.034Z" fill="#196D3B"/>
<path d="M170.956 747.187C169.413 747.187 168.163 745.936 168.163 744.393C168.163 742.85 169.413 741.6 170.956 741.6C172.499 741.6 173.75 742.85 173.75 744.393C173.75 745.936 172.499 747.187 170.956 747.187Z" fill="#299655"/>
<path d="M208.951 766.02C207.408 766.02 206.157 764.77 206.157 763.227C206.157 761.684 207.408 760.434 208.951 760.434C210.494 760.434 211.744 761.684 211.744 763.227C211.744 764.77 210.494 766.02 208.951 766.02Z" fill="#299655"/>
<path d="M233.552 766.02C232.01 766.02 230.759 764.77 230.759 763.227C230.759 761.684 232.01 760.434 233.552 760.434C235.095 760.434 236.346 761.684 236.346 763.227C236.346 764.77 235.095 766.02 233.552 766.02Z" fill="#299655"/>
<path d="M138.343 763.678C105.621 761.515 89.5811 793.956 74.1885 785.846C58.7959 777.735 54.9778 789.09 34.9212 801.761C15.0811 814.296 0.682175 800.741 0.3741 800.449C0.37114 800.446 0.368942 800.444 0.368942 800.444C0.371887 800.444 0.371887 800.447 0.3741 800.447C0.379272 800.45 0.385178 800.455 0.393311 800.458C0.855789 800.729 7.71396 804.527 16.5897 797.741C25.7817 790.712 17.6713 768.003 34.922 757.73C52.1727 747.458 60.3857 757.19 74.1892 757.19C87.9927 757.19 88.501 735.022 108.653 735.022C128.806 735.022 138.343 763.678 138.343 763.678Z" fill="#57CE87"/>
<path d="M0.372331 800.447V800.45L0.366421 800.444L0.372331 800.447Z" fill="#57CE87"/>
<path d="M138.341 763.678C105.619 761.515 89.5792 793.956 74.1866 785.846C58.7939 777.735 54.9759 789.09 34.9193 801.761C15.0792 814.296 0.680237 800.741 0.372162 800.449C0.377335 800.452 0.385452 800.455 0.391373 800.457C3.83041 802.623 12.0649 806.365 20.1916 801.707C28.3397 797.035 29.0238 777.916 41.1 772.869C53.1732 767.822 65.3152 772.36 76.0631 771.044C93.545 768.904 90.8425 754.667 106.882 751.783C122.921 748.898 138.341 763.678 138.341 763.678Z" fill="#299655"/>
<path d="M138.276 763.746C137.19 762.785 136.041 761.889 134.871 761.03C133.702 760.168 132.503 759.349 131.276 758.576C128.825 757.028 126.257 755.671 123.592 754.569C120.932 753.468 118.164 752.618 115.339 752.217L114.811 752.137L114.28 752.085C113.926 752.053 113.572 752.013 113.218 751.987C112.509 751.968 111.8 751.915 111.093 751.955L110.562 751.97C110.385 751.972 110.209 751.98 110.033 752.002L108.98 752.102C108.628 752.132 108.284 752.211 107.936 752.263C107.589 752.32 107.241 752.371 106.902 752.465C104.185 753.109 101.517 754.261 99.2294 755.835C98.0791 756.62 97.0115 757.51 96.0319 758.503C95.0478 759.493 94.134 760.571 93.2319 761.696C92.3151 762.813 91.4145 763.982 90.3913 765.084C89.3577 766.173 88.234 767.222 86.9433 768.033C85.6667 768.861 84.2741 769.48 82.8497 769.918C81.4202 770.348 79.9618 770.614 78.4998 770.74L78.4665 770.554C79.8687 770.149 81.2458 769.702 82.5461 769.109C83.85 768.529 85.0698 767.805 86.1721 766.948C88.3884 765.228 89.9982 762.903 91.7373 760.536C92.6217 759.36 93.5644 758.185 94.6385 757.111C95.7076 756.032 96.9162 755.077 98.2039 754.267C99.4968 753.465 100.86 752.789 102.262 752.252C102.609 752.108 102.966 751.995 103.318 751.864C103.495 751.803 103.668 751.734 103.849 751.68L104.394 751.522C104.758 751.42 105.119 751.305 105.485 751.214L106.594 750.983C106.962 750.894 107.337 750.852 107.71 750.802C108.084 750.759 108.455 750.688 108.831 750.667L109.956 750.597C110.143 750.581 110.33 750.577 110.518 750.581L111.08 750.584C111.831 750.567 112.576 750.646 113.322 750.691C113.693 750.73 114.062 750.784 114.432 750.829L114.986 750.903L115.535 751.004C118.47 751.519 121.288 752.49 123.97 753.703C126.644 754.941 129.188 756.425 131.597 758.091C134.006 759.758 136.302 761.577 138.407 763.611L138.276 763.746Z" fill="#196D3B"/>
<path d="M101.475 768.814C99.9325 768.814 98.6819 767.563 98.6819 766.02C98.6819 764.478 99.9325 763.227 101.475 763.227C103.018 763.227 104.269 764.478 104.269 766.02C104.269 767.563 103.018 768.814 101.475 768.814Z" fill="#196D3B"/>
<path d="M42.4498 786.567C40.9071 786.567 39.6565 785.316 39.6565 783.773C39.6565 782.231 40.9071 780.98 42.4498 780.98C43.9925 780.98 45.2432 782.231 45.2432 783.773C45.2432 785.316 43.9925 786.567 42.4498 786.567Z" fill="#196D3B"/>
<path d="M76.5133 782.034C74.9706 782.034 73.7199 780.783 73.7199 779.24C73.7199 777.698 74.9706 776.447 76.5133 776.447C78.056 776.447 79.3066 777.698 79.3066 779.24C79.3066 780.783 78.056 782.034 76.5133 782.034Z" fill="#196D3B"/>
<path d="M105.857 747.187C104.314 747.187 103.064 745.936 103.064 744.393C103.064 742.85 104.314 741.6 105.857 741.6C107.4 741.6 108.65 742.85 108.65 744.393C108.65 745.936 107.4 747.187 105.857 747.187Z" fill="#299655"/>
<path d="M67.8624 766.02C66.3197 766.02 65.0691 764.77 65.0691 763.227C65.0691 761.684 66.3197 760.434 67.8624 760.434C69.4051 760.434 70.6558 761.684 70.6558 763.227C70.6558 764.77 69.4051 766.02 67.8624 766.02Z" fill="#299655"/>
<path d="M43.2608 766.02C41.7181 766.02 40.4675 764.77 40.4675 763.227C40.4675 761.684 41.7181 760.434 43.2608 760.434C44.8036 760.434 46.0542 761.684 46.0542 763.227C46.0542 764.77 44.8036 766.02 43.2608 766.02Z" fill="#299655"/>
<path d="M291.341 31.1515C262.021 44.4091 269.998 144.852 288.923 152.765C307.848 160.677 389.15 151.417 389.15 151.417C389.15 151.417 398.545 165.155 397.514 179.215C397.514 179.215 415.597 163.143 416.787 146.919C416.787 146.919 481.195 137.507 483.678 121.378C486.162 105.249 463.817 19.8788 443.122 18.3609C422.428 16.8431 345.14 6.82472 291.341 31.1515Z" stroke="#8A7968" stroke-width="3"/>
</svg>
